<svg width="5190" height="1000" viewBox="0 0 5190 1000" fill="none" xmlns="http://www.w3.org/2000/svg">
<rect width="5190" height="1000" fill="white"/>
<path d="M1411.36 705H1272.28C1224.78 705 1189.44 695.5 1166.26 676.5C1143.46 657.5 1132.06 628.24 1132.06 588.72V411.45C1132.06 371.93 1143.46 342.67 1166.26 323.67C1189.44 304.29 1224.78 294.6 1272.28 294.6H1411.36C1418.58 294.6 1423.71 296.31 1426.75 299.73C1430.17 302.77 1431.88 307.9 1431.88 315.12V384.09C1431.88 391.31 1430.17 396.63 1426.75 400.05C1423.71 403.09 1418.58 404.61 1411.36 404.61H1296.79C1285.01 404.61 1276.27 407.08 1270.57 412.02C1264.87 416.58 1262.02 423.61 1262.02 433.11V568.77C1262.02 578.27 1264.87 585.3 1270.57 589.86C1276.27 594.04 1285.01 596.13 1296.79 596.13H1411.36C1418.58 596.13 1423.71 597.84 1426.75 601.26C1430.17 604.3 1431.88 609.43 1431.88 616.65V684.48C1431.88 691.7 1430.17 697.02 1426.75 700.44C1423.71 703.48 1418.58 705 1411.36 705ZM1605.12 705H1516.77C1509.55 705 1504.23 703.48 1500.81 700.44C1497.77 697.02 1496.25 691.7 1496.25 684.48V315.12C1496.25 307.9 1497.77 302.77 1500.81 299.73C1504.23 296.31 1509.55 294.6 1516.77 294.6H1605.12C1612.34 294.6 1617.47 296.31 1620.51 299.73C1623.93 302.77 1625.64 307.9 1625.64 315.12V438.81H1720.83V315.12C1720.83 307.9 1722.35 302.77 1725.39 299.73C1728.81 296.31 1734.13 294.6 1741.35 294.6H1829.7C1836.92 294.6 1842.05 296.31 1845.09 299.73C1848.51 302.77 1850.22 307.9 1850.22 315.12V684.48C1850.22 691.7 1848.51 697.02 1845.09 700.44C1842.05 703.48 1836.92 705 1829.7 705H1741.35C1734.13 705 1728.81 703.48 1725.39 700.44C1722.35 697.02 1720.83 691.7 1720.83 684.48V557.94H1625.64V684.48C1625.64 691.7 1623.93 697.02 1620.51 700.44C1617.47 703.48 1612.34 705 1605.12 705ZM2077.53 414.3L2050.74 500.94H2140.23L2113.44 414.3C2111.92 410.88 2110.21 408.41 2108.31 406.89C2106.79 405.37 2104.89 404.61 2102.61 404.61H2088.36C2086.08 404.61 2083.99 405.37 2082.09 406.89C2080.57 408.41 2079.05 410.88 2077.53 414.3ZM2045.04 684.48C2045.04 691.7 2043.33 697.02 2039.91 700.44C2036.87 703.48 2031.74 705 2024.52 705H1940.73C1933.51 705 1928.19 703.48 1924.77 700.44C1921.73 697.02 1920.21 691.7 1920.21 684.48V534C1920.21 522.6 1921.92 509.49 1925.34 494.67C1929.14 479.85 1934.84 462.56 1942.44 442.8L1992.03 313.41C1994.31 306.95 1997.73 302.2 2002.29 299.16C2007.23 296.12 2013.5 294.6 2021.1 294.6H2174.43C2181.65 294.6 2187.54 296.12 2192.1 299.16C2197.04 302.2 2200.65 306.95 2202.93 313.41L2252.52 442.8C2260.12 462.56 2265.63 479.85 2269.05 494.67C2272.85 509.49 2274.75 522.6 2274.75 534V684.48C2274.75 691.7 2273.04 697.02 2269.62 700.44C2266.58 703.48 2261.45 705 2254.23 705H2168.16C2160.56 705 2154.86 703.48 2151.06 700.44C2147.64 697.02 2145.93 691.7 2145.93 684.48V604.68H2045.04V684.48ZM2516.1 705H2423.76C2416.54 705 2411.22 703.48 2407.8 700.44C2404.76 697.02 2403.24 691.7 2403.24 684.48V404.61H2319.45C2312.23 404.61 2306.91 403.09 2303.49 400.05C2300.45 396.63 2298.93 391.31 2298.93 384.09V315.12C2298.93 307.9 2300.45 302.77 2303.49 299.73C2306.91 296.31 2312.23 294.6 2319.45 294.6H2620.41C2627.63 294.6 2632.76 296.31 2635.8 299.73C2639.22 302.77 2640.93 307.9 2640.93 315.12V384.09C2640.93 391.31 2639.22 396.63 2635.8 400.05C2632.76 403.09 2627.63 404.61 2620.41 404.61H2536.62V684.48C2536.62 691.7 2534.91 697.02 2531.49 700.44C2528.45 703.48 2523.32 705 2516.1 705ZM2886.75 705H2706.63C2699.41 705 2694.09 703.48 2690.67 700.44C2687.63 697.02 2686.11 691.7 2686.11 684.48V617.79C2686.11 610.57 2687.63 605.44 2690.67 602.4C2694.09 598.98 2699.41 597.27 2706.63 597.27H2859.96C2864.9 597.27 2868.51 595.75 2870.79 592.71C2873.45 589.29 2874.78 585.3 2874.78 580.74C2874.78 574.28 2873.45 569.53 2870.79 566.49C2868.51 563.45 2864.9 561.74 2859.96 561.36L2774.46 549.39C2747.86 545.59 2726.39 536.85 2710.05 523.17C2694.09 509.49 2686.11 486.69 2686.11 454.77V394.92C2686.11 362.62 2696.56 337.92 2717.46 320.82C2738.36 303.34 2767.24 294.6 2804.1 294.6H2963.7C2970.92 294.6 2976.05 296.31 2979.09 299.73C2982.51 302.77 2984.22 307.9 2984.22 315.12V382.95C2984.22 390.17 2982.51 395.49 2979.09 398.91C2976.05 401.95 2970.92 403.47 2963.7 403.47H2830.89C2825.95 403.47 2822.15 405.18 2819.49 408.6C2816.83 411.64 2815.5 415.63 2815.5 420.57C2815.5 425.51 2816.83 429.69 2819.49 433.11C2822.15 436.53 2825.95 438.43 2830.89 438.81L2915.82 450.21C2942.42 454.01 2963.89 462.75 2980.23 476.43C2996.57 490.11 3004.74 512.91 3004.74 544.83V604.68C3004.74 636.98 2994.1 661.87 2972.82 679.35C2951.92 696.45 2923.23 705 2886.75 705ZM3352.09 705H3087.61C3080.39 705 3075.07 703.48 3071.65 700.44C3068.61 697.02 3067.09 691.7 3067.09 684.48V315.12C3067.09 307.9 3068.61 302.77 3071.65 299.73C3075.07 296.31 3080.39 294.6 3087.61 294.6H3352.09C3359.31 294.6 3364.44 296.31 3367.48 299.73C3370.9 302.77 3372.61 307.9 3372.61 315.12V381.81C3372.61 389.03 3370.9 394.35 3367.48 397.77C3364.44 400.81 3359.31 402.33 3352.09 402.33H3194.77V446.22H3305.92C3313.14 446.22 3318.27 447.93 3321.31 451.35C3324.73 454.39 3326.44 459.52 3326.44 466.74V527.73C3326.44 534.95 3324.73 540.27 3321.31 543.69C3318.27 546.73 3313.14 548.25 3305.92 548.25H3194.77V597.27H3352.09C3359.31 597.27 3364.44 598.98 3367.48 602.4C3370.9 605.44 3372.61 610.57 3372.61 617.79V684.48C3372.61 691.7 3370.9 697.02 3367.48 700.44C3364.44 703.48 3359.31 705 3352.09 705ZM3545.49 705H3460.56C3453.34 705 3448.02 703.48 3444.6 700.44C3441.56 697.02 3440.04 691.7 3440.04 684.48V315.12C3440.04 307.9 3441.56 302.77 3444.6 299.73C3448.02 296.31 3453.34 294.6 3460.56 294.6H3552.33C3558.41 294.6 3563.35 295.93 3567.15 298.59C3571.33 301.25 3575.13 305.62 3578.55 311.7L3629.85 404.61C3631.75 408.03 3633.27 410.5 3634.41 412.02C3635.93 413.54 3637.83 414.3 3640.11 414.3H3645.24C3647.52 414.3 3649.23 413.54 3650.37 412.02C3651.89 410.5 3653.6 408.03 3655.5 404.61L3706.23 311.7C3709.65 305.62 3713.26 301.25 3717.06 298.59C3721.24 295.93 3726.37 294.6 3732.45 294.6H3824.79C3832.01 294.6 3837.14 296.31 3840.18 299.73C3843.6 302.77 3845.31 307.9 3845.31 315.12V684.48C3845.31 691.7 3843.6 697.02 3840.18 700.44C3837.14 703.48 3832.01 705 3824.79 705H3737.01C3729.79 705 3724.47 703.48 3721.05 700.44C3718.01 697.02 3716.49 691.7 3716.49 684.48V483.84L3682.86 545.97C3679.44 552.43 3675.26 557.18 3670.32 560.22C3665.76 562.88 3659.87 564.21 3652.65 564.21H3629.85C3622.63 564.21 3616.55 562.88 3611.61 560.22C3607.05 557.18 3603.06 552.43 3599.64 545.97L3566.01 483.84V684.48C3566.01 691.7 3564.3 697.02 3560.88 700.44C3557.84 703.48 3552.71 705 3545.49 705ZM4163.16 705H3944.28C3937.06 705 3931.74 703.48 3928.32 700.44C3925.28 697.02 3923.76 691.7 3923.76 684.48V315.12C3923.76 307.9 3925.28 302.77 3928.32 299.73C3931.74 296.31 3937.06 294.6 3944.28 294.6H4126.11C4163.35 294.6 4190.9 301.82 4208.76 316.26C4226.62 330.32 4235.55 352.17 4235.55 381.81V409.17C4235.55 425.13 4232.7 438.24 4227 448.5C4221.68 458.38 4213.32 465.79 4201.92 470.73C4226.24 473.01 4244.29 481.37 4256.07 495.81C4267.85 510.25 4273.74 531.34 4273.74 559.08V611.52C4273.74 643.44 4264.62 667 4246.38 682.2C4228.52 697.4 4200.78 705 4163.16 705ZM4052.01 391.5V453.06H4100.46C4107.68 453.06 4113 451.16 4116.42 447.36C4120.22 443.56 4122.12 437.86 4122.12 430.26V414.3C4122.12 406.7 4120.22 401 4116.42 397.2C4113 393.4 4107.68 391.5 4100.46 391.5H4052.01ZM4052.01 540.84V608.1H4126.11C4133.33 608.1 4138.65 606.2 4142.07 602.4C4145.87 598.6 4147.77 592.9 4147.77 585.3V563.07C4147.77 555.47 4145.87 549.96 4142.07 546.54C4138.65 542.74 4133.33 540.84 4126.11 540.84H4052.01ZM4647.44 705H4357.31C4350.09 705 4344.77 703.48 4341.35 700.44C4338.31 697.02 4336.79 691.7 4336.79 684.48V315.12C4336.79 307.9 4338.31 302.77 4341.35 299.73C4344.77 296.31 4350.09 294.6 4357.31 294.6H4445.66C4452.88 294.6 4458.01 296.31 4461.05 299.73C4464.47 302.77 4466.18 307.9 4466.18 315.12V597.27H4544.27V504.93C4544.27 497.71 4545.79 492.58 4548.83 489.54C4552.25 486.12 4557.57 484.41 4564.79 484.41H4647.44C4654.66 484.41 4659.79 486.12 4662.83 489.54C4666.25 492.58 4667.96 497.71 4667.96 504.93V684.48C4667.96 691.7 4666.25 697.02 4662.83 700.44C4659.79 703.48 4654.66 705 4647.44 705ZM5018.12 705H4753.64C4746.42 705 4741.1 703.48 4737.68 700.44C4734.64 697.02 4733.12 691.7 4733.12 684.48V315.12C4733.12 307.9 4734.64 302.77 4737.68 299.73C4741.1 296.31 4746.42 294.6 4753.64 294.6H5018.12C5025.34 294.6 5030.47 296.31 5033.51 299.73C5036.93 302.77 5038.64 307.9 5038.64 315.12V381.81C5038.64 389.03 5036.93 394.35 5033.51 397.77C5030.47 400.81 5025.34 402.33 5018.12 402.33H4860.8V446.22H4971.95C4979.17 446.22 4984.3 447.93 4987.34 451.35C4990.76 454.39 4992.47 459.52 4992.47 466.74V527.73C4992.47 534.95 4990.76 540.27 4987.34 543.69C4984.3 546.73 4979.17 548.25 4971.95 548.25H4860.8V597.27H5018.12C5025.34 597.27 5030.47 598.98 5033.51 602.4C5036.93 605.44 5038.64 610.57 5038.64 617.79V684.48C5038.64 691.7 5036.93 697.02 5033.51 700.44C5030.47 703.48 5025.34 705 5018.12 705Z" fill="black"/>
<path d="M977 103H119V705H956.229L977 103Z" stroke="black" stroke-width="30"/>
<path d="M531.5 705L300.5 910C270.5 936.623 264.333 904.426 265 885L262 705H531.5Z" fill="black" stroke="black" stroke-width="24"/>
<path d="M496.36 609H357.28C309.78 609 274.44 599.5 251.26 580.5C228.46 561.5 217.06 532.24 217.06 492.72V315.45C217.06 275.93 228.46 246.67 251.26 227.67C274.44 208.29 309.78 198.6 357.28 198.6H496.36C503.58 198.6 508.71 200.31 511.75 203.73C515.17 206.77 516.88 211.9 516.88 219.12V288.09C516.88 295.31 515.17 300.63 511.75 304.05C508.71 307.09 503.58 308.61 496.36 308.61H381.79C370.01 308.61 361.27 311.08 355.57 316.02C349.87 320.58 347.02 327.61 347.02 337.11V472.77C347.02 482.27 349.87 489.3 355.57 493.86C361.27 498.04 370.01 500.13 381.79 500.13H496.36C503.58 500.13 508.71 501.84 511.75 505.26C515.17 508.3 516.88 513.43 516.88 520.65V588.48C516.88 595.7 515.17 601.02 511.75 604.44C508.71 607.48 503.58 609 496.36 609ZM771.63 609H591.51C584.29 609 578.97 607.48 575.55 604.44C572.51 601.02 570.99 595.7 570.99 588.48V521.79C570.99 514.57 572.51 509.44 575.55 506.4C578.97 502.98 584.29 501.27 591.51 501.27H744.84C749.78 501.27 753.39 499.75 755.67 496.71C758.33 493.29 759.66 489.3 759.66 484.74C759.66 478.28 758.33 473.53 755.67 470.49C753.39 467.45 749.78 465.74 744.84 465.36L659.34 453.39C632.74 449.59 611.27 440.85 594.93 427.17C578.97 413.49 570.99 390.69 570.99 358.77V298.92C570.99 266.62 581.44 241.92 602.34 224.82C623.24 207.34 652.12 198.6 688.98 198.6H848.58C855.8 198.6 860.93 200.31 863.97 203.73C867.39 206.77 869.1 211.9 869.1 219.12V286.95C869.1 294.17 867.39 299.49 863.97 302.91C860.93 305.95 855.8 307.47 848.58 307.47H715.77C710.83 307.47 707.03 309.18 704.37 312.6C701.71 315.64 700.38 319.63 700.38 324.57C700.38 329.51 701.71 333.69 704.37 337.11C707.03 340.53 710.83 342.43 715.77 342.81L800.7 354.21C827.3 358.01 848.77 366.75 865.11 380.43C881.45 394.11 889.62 416.91 889.62 448.83V508.68C889.62 540.98 878.98 565.87 857.7 583.35C836.8 600.45 808.11 609 771.63 609Z" fill="black"/>
</svg>
